<svg xmlns="http://www.w3.org/2000/svg" width="138.296" height="44.637" viewBox="0 0 138.296 44.637"><defs><style>.a{fill:#e2e2e2;}</style></defs><g transform="translate(-1537.984 -324.63)"><path class="a" d="M442.648,392.161V409.99c0,.683-.327.861-.861.861h-2.846c-.535,0-.862-.178-.862-.861V399.933l-2.966,5.19a1.092,1.092,0,0,1-.861.623h-1.482c-.445,0-.683-.385-.832-.623l-3-5.19V409.99c0,.683-.327.861-.861.861h-2.937c-.532,0-.859-.178-.859-.861V392.161c0-.533.178-.861.859-.861h2.937c1.009,0,1.128.653,1.366,1.01l4.064,7.3,4.094-7.3c.208-.357.356-1.01,1.336-1.01h2.846c.683,0,.861.327.861.861" transform="translate(1113.699 -66.255)"/><path class="a" d="M454.545,407.546v2.432c0,.533-.178.861-.859.861H440.394c-.681,0-.859-.327-.859-.861v-17.8c0-.535.178-.859.859-.859h12.786c.683,0,.861.324.861.859v2.462c0,.535-.178.859-.861.859h-8.959v3.236h7.95c.681,0,.861.324.861.859v2.314c0,.533-.179.861-.861.861h-7.95v3.914h9.464c.681,0,.859.326.859.86" transform="translate(1121.234 -66.245)"/><path class="a" d="M466.536,392.181v2.461c0,.535-.178.861-.859.861h-4.539V409.98c0,.683-.327.861-.859.861H457.34c-.533,0-.859-.178-.859-.861V395.5h-4.569c-.683,0-.861-.326-.861-.861v-2.461c0-.535.178-.861.861-.861h13.765c.681,0,.859.326.859.861" transform="translate(1126.923 -66.245)"/><path class="a" d="M478.965,410.829h-3.5a1.581,1.581,0,0,1-1.483-.89l-3.2-4.775a2.2,2.2,0,0,1-.326-1.514v-2.374c0-.532.178-.859.859-.859h.593a2.655,2.655,0,0,0,2.818-2.4,2.52,2.52,0,0,0-2.728-2.522h-3.946v14.478c0,.683-.326.861-.861.861H464.25c-.532,0-.829-.178-.829-.861V392.2c0-.533.148-.861.829-.861h7.476c3.233,0,4.657.653,5.9,1.9a6.461,6.461,0,0,1,1.721,4.657,6.387,6.387,0,0,1-4.124,5.9l4.183,6.082c.267.415.118.949-.445.949" transform="translate(1133.036 -66.235)"/><path class="a" d="M484.206,411.431c-3.529,0-7.92-2.017-7.92-6.7v-7c0-4.688,4.391-6.705,7.92-6.705s7.98,2.017,7.98,6.705v7c0,4.687-4.449,6.7-7.98,6.7m0-16.286c-1.927,0-3.291,1.1-3.291,3v6.171c0,1.9,1.364,3,3.291,3,1.959,0,3.324-1.1,3.324-3v-6.171c0-1.9-1.365-3-3.324-3" transform="translate(1139.392 -66.392)"/><path class="a" d="M440.127,408.4v17.8c0,.534-.178.859-.861.859h-2.7c-.741,0-.95-.415-1.334-1.009l-6.289-10.175v10.324c0,.681-.327.859-.862.859h-2.936c-.533,0-.861-.178-.861-.859V408.4c0-.535.179-.861.861-.861h2.789c.741,0,.949.415,1.334,1.009l6.289,10.147V408.4c0-.683.327-.861.861-.861h2.848c.533,0,.861.178.861.861" transform="translate(1113.699 -58.233)"/><path class="a" d="M452.857,423.762v2.432c0,.534-.178.861-.861.861h-13.29c-.681,0-.861-.327-.861-.861V408.4c0-.535.179-.861.861-.861h12.786c.681,0,.861.326.861.861v2.462c0,.535-.179.859-.861.859h-8.958v3.235h7.95c.681,0,.859.326.859.861v2.314c0,.532-.178.859-.859.859h-7.95V422.9H452c.683,0,.861.326.861.861" transform="translate(1120.4 -58.233)"/><path class="a" d="M464.848,408.4v2.461c0,.535-.178.861-.861.861H459.45v14.478c0,.681-.327.859-.861.859h-2.937c-.535,0-.859-.178-.859-.859V411.717h-4.569c-.683,0-.861-.326-.861-.861V408.4c0-.535.178-.861.861-.861h13.763c.683,0,.861.326.861.861" transform="translate(1126.09 -58.233)"/><path class="a" d="M486.093,408.4l-5.458,18.035a.83.83,0,0,1-.8.623h-2.491a.962.962,0,0,1-.95-.681l-2.967-9.463-2.966,9.463a.962.962,0,0,1-.95.681H466.9a.83.83,0,0,1-.8-.623L460.611,408.4c-.088-.357,0-.861.535-.861h3.262a1.128,1.128,0,0,1,1.186.949l2.937,10.087,2.848-10.087c.118-.415.327-.949,1.008-.949h2.077c.653,0,.861.533.979.949l2.878,10.087,2.937-10.087a1.107,1.107,0,0,1,1.188-.949h3.143c.535,0,.621.5.5.861" transform="translate(1131.632 -58.233)"/><path class="a" d="M487.125,427.647c-3.529,0-7.92-2.017-7.92-6.7v-7c0-4.687,4.391-6.7,7.92-6.7s7.98,2.017,7.98,6.7v7c0,4.687-4.45,6.7-7.98,6.7m0-16.286c-1.927,0-3.291,1.1-3.291,3v6.171c0,1.9,1.364,3,3.291,3,1.959,0,3.324-1.1,3.324-3v-6.171c0-1.9-1.366-3-3.324-3" transform="translate(1140.834 -58.38)"/><path class="a" d="M507.953,427.045h-3.5a1.583,1.583,0,0,1-1.484-.889l-3.2-4.777a2.2,2.2,0,0,1-.326-1.513v-2.373c0-.533.178-.861.859-.861h.593a2.655,2.655,0,0,0,2.818-2.4,2.519,2.519,0,0,0-2.728-2.52h-3.946v14.476c0,.683-.326.861-.861.861h-2.937c-.532,0-.829-.178-.829-.861V408.416c0-.533.148-.861.829-.861h7.476c3.233,0,4.657.655,5.9,1.9a6.463,6.463,0,0,1,1.721,4.657,6.388,6.388,0,0,1-4.124,5.9L508.4,426.1c.267.417.118.95-.445.95" transform="translate(1147.358 -58.223)"/><path class="a" d="M522.207,408.366l-6.676,7.239,6.378,10.5c.238.385.12.95-.445.95h-3.619a1.606,1.606,0,0,1-1.484-.95s-2.64-4.449-4.242-7.119l-1.839,1.929v5.28c0,.683-.326.861-.831.861h-2.937c-.563,0-.86-.178-.86-.861V408.4c0-.684.3-.862.86-.862h2.938c.505,0,.831.178.831.862v6.614l6.141-6.764a1.545,1.545,0,0,1,1.482-.713h4.006c.563,0,.563.565.3.831" transform="translate(1153.901 -58.233)"/></g></svg>